<?xml version="1.0" encoding="utf-8"?>
<!-- Generator: Adobe Illustrator 16.0.0, SVG Export Plug-In . SVG Version: 6.00 Build 0)  -->
<!DOCTYPE svg PUBLIC "-//W3C//DTD SVG 1.1//EN" "http://www.w3.org/Graphics/SVG/1.1/DTD/svg11.dtd">
<svg version="1.1" id="圖層_1" xmlns="http://www.w3.org/2000/svg" xmlns:xlink="http://www.w3.org/1999/xlink" x="0px" y="0px"
	 width="253.43px" height="325.25px" viewBox="0 0 253.43 325.25" enable-background="new 0 0 253.43 325.25" xml:space="preserve">
<g>
	<path fill="#FFFFFF" d="M253.156,194.631c-0.263-0.227-0.589-0.51-0.803-0.92c-0.27-0.518-0.473-1.042-0.67-1.55
		c-0.316-0.82-0.617-1.595-1.157-2.231c-0.757-0.896-1.521-1.742-2.56-2.265c-0.683-0.344-1.443-0.537-2.247-0.742
		c-0.608-0.153-1.236-0.313-1.86-0.547c-0.305-0.115-0.626-0.03-0.88,0.231c-0.214,0.219-0.864,0.887-1.943,0.715
		c-2.435-0.385-4.712,0.318-7.378,1.492c-0.258,0.113-0.521,0.213-0.782,0.314c-0.277,0.105-0.557,0.21-0.823,0.336
		c-0.758,0.355-1.536,0.543-2.289,0.723c-0.96,0.23-1.867,0.447-2.58,0.996c-0.625,0.479-1.402,0.491-1.953,0.034
		c-0.032,0.038-0.071,0.087-0.118,0.147l-0.072,0.099c-0.219,0.302-0.624,0.863-1.388,0.922c-0.612,0.048-1.133,0.48-1.732,0.98
		c-0.728,0.604-1.614,1.344-2.867,1.438c-1.38,1.592-3.229,1.975-4.865,2.313l-0.555,0.117c-2.655,0.576-4.336,2.059-5.138,4.531
		c-0.479,1.475-0.597,2.42,0.146,3.191c0.363,0.38,0.767,0.73,1.192,1.102c0.645,0.563,1.311,1.143,1.884,1.864
		c1.137-0.062,1.916,0.562,2.545,1.06l0.115,0.094c1.294,1.021,2.396,1.807,3.821,1.835c0.875,0.016,1.697,0.414,2.514,1.218
		c0.172,0.17,0.329,0.38,0.479,0.592c0.08,0.11,0.2,0.279,0.255,0.323c1.447,0.476,2.158,1.688,2.729,2.663
		c0.28,0.479,0.545,0.93,0.871,1.27c0.804,0.832,1.893,1.895,3.192,2.717c0.314,0.117,0.99,0.371,1.117,1.188
		c0.056,0.352,0.057,1.219-1.104,1.719c-0.198,0.084-0.385,0.293-0.602,0.532l-0.228,0.249c-0.736,0.773-1.594,1.172-2.62,1.219
		c-1.04,0.047-2.273,0.043-3.521-0.352c-2.027-0.643-4.127-0.583-6.348-0.521l-0.404,0.012c-0.037,0.002-0.08,0.009-0.126,0.016
		c-1.309,0.18-1.612-0.596-1.684-0.938c-0.022-0.113-0.05-0.152-0.05-0.153c-0.03-0.001-0.267-0.019-0.421-0.029
		c-0.219-0.015-0.437-0.032-0.645-0.075c-1.121-0.224-2.104-0.729-2.918-1.5c-1.387-1.313-2.694-2.556-4.469-3.012
		c-0.244-0.063-0.702-0.227-1.01-0.619c-0.338-0.431-0.717-0.835-1.118-1.263c-0.775-0.828-1.577-1.685-2.145-2.812l-0.048-0.095
		c-0.423-0.847-0.528-0.866-0.835-0.813c-0.435,0.08-1.044-0.006-1.484-0.863c-0.31-0.486-0.53-0.908-0.745-1.316
		c-0.469-0.894-0.874-1.666-1.646-2.125c-0.605-0.358-0.946-0.895-0.938-1.467c0.004-0.209,0.061-0.537,0.318-0.861
		c-0.498-0.476-0.84-1.024-1.149-1.527c-0.162-0.262-0.321-0.523-0.507-0.768c-0.023-0.031-0.596-0.772-0.865-0.613
		c-0.521,0.303-0.871,0.709-0.96,1.111c-0.08,0.36,0.035,0.768,0.34,1.207c0.074,0.105,0.151,0.207,0.229,0.31
		c0.313,0.415,0.703,0.932,0.858,1.657c0.298,1.393,0.923,2.578,1.911,3.627l0.098,0.104c0.609,0.645,1.368,1.445,1.521,2.563
		c0.182,1.316,0.841,2.226,2.141,2.945c1.732,0.961,1.721,2.393,1.561,3.158c-0.038,0.18-0.064,0.518,0.179,0.78
		c0.746,0.807,0.956,1.729,1.142,2.544c0.218,0.953,1.475,2.088,1.906,2.126l0.178,0.006c1.754,0.063,3.741,0.133,5.282,1.879
		c0.182,0.205,0.535,0.324,0.901,0.296c0.313-0.021,1.047-0.07,1.504,0.568c0.462,0.646,1.215,0.923,2.089,1.242
		c0.229,0.085,0.459,0.17,0.684,0.26c1.42,0.575,2.891,1.17,4.331,1.335c0.922,0.104,1.843,0.235,2.763,0.365
		c1.306,0.185,2.655,0.376,3.98,0.483c0.311,0.026,0.673-0.013,1.058-0.054c0.337-0.035,0.701-0.074,1.079-0.074
		c0.597,0,1.227,0.097,1.836,0.452c0.44-0.174,0.87-0.197,1.21-0.215c0.151-0.008,0.305-0.014,0.451-0.042
		c0.934-0.183,1.877-0.322,2.822-0.462c2.916-0.432,5.67-0.838,8.069-2.491c1.76-1.213,2.848-2.043,2.881-3.651
		c-0.017-0.185-0.017-0.377-0.015-0.564c0.001-0.057,0.001-0.125,0.001-0.189c-1.019-0.168-1.669-0.797-1.969-1.877
		c-0.155-0.563-0.426-0.789-1.07-0.893c-0.418-0.067-1.019-0.23-1.497-0.627c-1.473-1.219-3.215-1.98-5.062-2.786
		c-2.014-0.879-4.096-1.788-5.854-3.351c-0.133-0.119-0.356-0.235-0.631-0.33c-1.231-0.428-2.319-1.075-3.328-1.705
		c-0.418-0.26-0.794-0.551-1.158-0.832c-0.59-0.456-1.147-0.887-1.777-1.103c-2.001-0.683-3.388-2.198-4.12-4.509
		c-0.135-0.423-0.271-0.666-0.505-0.898c-0.607-0.606-0.88-1.351-0.765-2.093c0.117-0.754,0.614-1.392,1.4-1.796
		c0.189-0.098,0.278-0.199,0.35-0.404c0.31-0.901,0.899-1.561,1.42-2.143l0.08-0.09c1.068-1.196,2.385-1.861,3.657-2.504
		c0.411-0.207,0.821-0.415,1.222-0.641c0.81-0.459,1.673-0.783,2.801-1.052c0.295-0.071,0.589-0.146,0.881-0.223
		c1.285-0.335,2.612-0.681,4.078-0.558c1.067-0.694,2.043-0.196,2.416-0.006c0.708,0.361,1.342,0.774,1.938,1.264
		c0.933,0.768,1.8,1.088,2.733,1.007c2.016-0.175,3.998,0.135,6.066,0.948c0.071,0.027,0.113,0.035,0.131,0.037
		c0.004-0.007,0.027-0.024,0.063-0.063c0.689-0.739,1.584-0.932,2.519-0.542c0.263,0.11,0.534,0.202,0.806,0.293
		c0.471,0.16,0.956,0.325,1.434,0.577c0.498,0.263,1.063,0.4,1.814-0.37c0.709-0.724,1.128-1.39,1.277-2.03
		C253.362,194.811,253.242,194.706,253.156,194.631"/>
	<path fill="#FFFFFF" d="M170.708,220.188c0.18,0.566,0.357,1.135,0.552,1.694c0.544,1.563,1.24,1.823,1.787,1.873
		c0.844,0.078,1.518,0.308,2.187,0.74c0.332,0.215,0.793,0.12,1.039,0.044c0.73-0.229,1.442-0.831,1.691-1.434
		c0.313-0.756,0.15-1.543-0.035-2.453c-0.189-0.92-0.401-1.952-0.093-3.043l-0.054-0.066c-0.672-0.813-1.492-1.807-1.532-3.214
		c-0.042-0.033-0.082-0.065-0.117-0.099c-0.062-0.055-0.134-0.104-0.204-0.156c-0.285-0.206-0.677-0.488-0.859-0.979
		c-0.549-1.468-1.278-2.825-2.048-4.266l-0.424-0.793c-0.646-1.218-1.178-1.464-1.825-1.466l-0.079-0.004
		c-0.03-0.002-0.047,0-0.053,0c0.002,0.004-0.051,0.049-0.137,0.199c-0.367,0.641-0.348,1.389-0.322,2.256l0.013,0.582
		c0.02,0.877,0.039,1.785-0.113,2.761c-0.08,0.514-0.099,1.052-0.119,1.622c-0.033,0.962-0.068,1.953-0.396,2.959
		C170.035,218.053,170.376,219.137,170.708,220.188"/>
	<path fill="#FFFFFF" d="M188.927,314.096c0.396-0.277,0.508-0.511,0.456-0.955c-0.076-0.688-0.334-1.132-1.472-1.5
		c-0.386-0.125-0.787-0.215-1.186-0.306c-1.125-0.255-2.4-0.544-3.46-1.545c-0.085-0.049-0.463-0.101-0.587-0.116
		c-0.664-0.09-1.229-0.334-1.773-0.767c-0.387-0.308-0.809-0.582-1.255-0.874c-1.01-0.66-2.144-1.401-2.921-2.61
		c-0.773,0.001-1.417-0.286-1.96-0.534c-0.36-0.166-0.732-0.334-0.948-0.309c-1.958,0.238-3.641-0.276-5.267-0.773l-0.533-0.16
		c-0.5-0.15-1.019-0.262-1.566-0.379c-1.228-0.263-2.498-0.533-3.676-1.278c-0.503-0.319-0.964-0.673-1.411-1.017
		c-0.899-0.688-1.751-1.342-2.812-1.604c-1.174-0.291-1.975-1.155-2.682-1.918c-0.171-0.187-0.34-0.367-0.511-0.536
		c-0.09-0.089-0.219-0.125-0.512-0.191c-0.382-0.088-0.905-0.207-1.336-0.664c-1.289-1.369-1.832-3.049-2.229-4.658
		c-0.205-0.836,0.136-1.651,0.891-2.129c0.452-0.287,0.886-0.623,1.345-0.979c0.963-0.748,1.96-1.522,3.258-1.921
		c0.878-0.271,1.58-0.912,2.323-1.592c0.725-0.664,1.476-1.354,2.476-1.805c0.132-0.061,0.278-0.117,0.429-0.18
		c0.233-0.093,0.666-0.266,0.77-0.377c0.401-0.802,1.061-1.402,1.643-1.932c0.611-0.555,1.14-1.033,1.354-1.7
		c0.276-0.864,0.832-1.545,1.321-2.146l0.296-0.367c1.229-1.564,1.686-2.918,1.522-4.526l-0.029-0.299l0.14-0.269
		c0.068-0.129,0.005-0.298-0.323-0.861c-0.257-0.44-0.561-0.963-0.656-1.596c-0.604-0.111-1.057-0.433-1.407-0.682
		c-0.099-0.07-0.196-0.141-0.299-0.204c-0.685-0.43-1.612-0.433-2.42-0.005c-0.755,0.398-1.221,1.076-1.249,1.809
		c-0.042,1.145-0.407,2.049-1.118,2.767l-0.268,0.269c-1.151,1.161-2.34,2.363-3.615,3.453c-0.295,0.252-0.337,0.355-0.32,0.791
		c0.013,0.338,0.063,0.68,0.111,1.023c0.171,1.207,0.384,2.709-0.805,4.082c-0.353,0.406-0.674,0.847-1.015,1.312
		c-0.176,0.24-0.352,0.479-0.53,0.714c-0.338,0.445-0.792,1.04-1.563,1.079c-0.405,0.021-0.796-0.123-1.163-0.425
		c-0.813,0.346-2.414,0.912-3.431-0.635c-1.068-0.101-1.716-0.832-2.166-1.344c-0.114-0.129-0.226-0.26-0.347-0.377
		c-0.816,0.442-1.548,0.116-1.966-0.066l-0.2-0.086c-1.204-0.479-2.167-1.223-2.864-2.215c-0.018-0.026-0.048-0.067-0.332-0.133
		c-1.143-0.259-1.959,0.176-2.441,0.584c-0.748,0.637-1.18,1.618-1.124,2.565c0.026,0.466,0.072,0.933,0.118,1.399
		c0.144,1.449,0.29,2.945-0.077,4.5c1.634,2.028,1.537,4.338,1.267,6.125c-0.149,0.976-0.316,2.08-0.267,3.102
		c0.1,2.104,0.024,4.217-0.048,6.262c-0.055,1.521-0.109,3.092-0.092,4.627c0.004,0.332,0.037,0.668,0.07,1.006
		c0.078,0.828,0.158,1.688-0.087,2.547c-0.187,0.647-0.193,1.158-0.027,1.822c0.547,2.188-0.583,3.18-1.627,3.625
		c-0.349,0.149-0.694,0.447-1.026,0.885c-0.632,0.83-0.595,1.217,0.186,1.969c0.751,0.723,1.436,1.544,2.158,2.582
		c0.14,0.203,0.271,0.426,0.405,0.652c0.479,0.826,0.715,1.14,1.278,1.147c1.366,0.004,2.641-1.082,2.855-2.46
		c0.594-3.797,0.554-7.686,0.47-11.032c-0.009-0.346-0.039-0.696-0.068-1.052c-0.113-1.382-0.241-2.938,0.681-4.407
		c-0.368-0.874-0.239-1.688-0.081-2.313c0.19-0.76,0.19-1.57,0.189-2.43c-0.001-0.802-0.002-1.63,0.153-2.486
		c0.189-1.047,0.586-1.767,1.29-2.328c0.934-0.749,1.884-0.107,2.241,0.136c0.06,0.04,0.118,0.081,0.177,0.115l0.55,0.323
		c0.432,0.25,0.861,0.502,1.281,0.77l0.168,0.107c1.432,0.91,2.915,1.854,4.01,3.341c0.229,0.309,0.431,0.643,0.629,0.977
		c0.562,0.94,0.916,1.48,1.711,1.644c0.521,0.104,0.877,0.451,1.139,0.703c0.06,0.06,0.12,0.117,0.181,0.168
		c0.799,0.672,1.543,1.398,2.264,2.104c0.653,0.639,1.27,1.241,1.927,1.809c0.799,0.689,1.673,1.347,2.518,1.979
		c1.093,0.821,2.225,1.67,3.265,2.64c0.126,0.116,0.371,0.215,0.632,0.32c0.512,0.205,1.147,0.462,1.579,1.113
		c1.462,2.201,3.723,2.388,6.341,2.604l0.563,0.047c1.064,0.094,2.105-0.021,2.786-0.307c1.485-0.621,2.951-0.905,4.448-1.164
		C185.73,315.805,187.459,315.127,188.927,314.096"/>
	<path fill="#FFFFFF" d="M139.43,277.366c1.241-0.206,2.526-0.419,3.751-0.716c1.33-0.318,2.683-0.463,3.99-0.602
		c2.084-0.221,4.053-0.429,5.867-1.298c0.236-0.114,0.73-0.281,1.303-0.069c-0.005-1.158,0.16-2.246,0.503-3.309
		c0.756-2.354,1.102-4.861,1.405-7.075c0.05-0.36,0.092-0.725,0.133-1.089c0.197-1.718,0.401-3.495,1.403-5.116
		c0.868-1.403,1.707-2.901,2.495-4.452c0.777-1.531,1.556-3.299,0.968-4.926c-0.812-2.242-2.875-3.277-4.463-3.751
		c-2.148-0.642-4.451-0.135-6.839,1.507c-1.648,1.135-3.373,1.146-4.894,1.155c-0.721,0.005-1.4,0.009-2.049,0.123
		c-0.593,0.104-1.069-0.274-1.248-0.44c-0.542-0.508-1.166-0.707-1.967-0.634c-0.914,0.085-1.736-0.465-1.998-1.34
		c-0.15-0.505-0.13-1.263,0.827-2.003c0.379-0.293,0.775-0.506,1.158-0.712l0.205-0.111c0.483-0.265,0.863-0.7,0.965-1.106
		c0.062-0.244-0.013-0.358-0.038-0.396l-0.282-0.436c-0.9-1.396-1.752-2.717-3.167-3.206c-1.233-0.429-2.242-0.435-2.84-0.021
		c-0.528,0.368-0.81,1.112-0.836,2.213l-0.053,0.301l-0.093,0.281c-0.249,0.76-0.625,1.91-1.55,2.83
		c-0.09,0.09-0.184,0.178-0.278,0.264c-0.239,0.223-0.487,0.451-0.498,0.604c-0.208,2.737-1.918,4.443-3.384,5.625
		c-0.1,0.08-0.209,0.16-0.321,0.241c-0.126,0.092-0.326,0.235-0.412,0.329c0.014,0.639-0.175,1.115-0.564,1.418
		c-0.599,0.467-1.297,0.249-1.672,0.134c-1.15-0.356-2.249-0.694-3.288-1.206c-0.475-0.232-0.762-0.143-1.533,0.49
		c-0.113,0.092-0.412,0.337-0.093,1.041c0.156,0.345,0.309,0.693,0.459,1.042c0.334,0.771,0.65,1.498,1.025,2.194
		c0.645,1.201,0.643,2.492-0.006,3.948c-0.345,0.772-0.324,1.384,0.068,1.982l0.437,0.668c0.746,1.147,1.517,2.336,2.38,3.379
		c0.149,0.18,0.303,0.354,0.457,0.53c0.995,1.135,2.226,2.539,1.605,4.717c0.028,0.128,0.046,0.215,0.056,0.3
		c0.165,1.515,0.32,2.947,0.645,4.372l0.035,0.134c0.107,0.398,0.329,1.228-0.292,1.787c-0.425,0.384-0.952,0.367-1.342,0.28
		c-0.453,0.708-1.199,1.148-2.121,1.25c-0.664,0.07-1.162,0.438-1.791,0.997c0.146,0.069,0.294,0.138,0.442,0.204
		c0.78,0.355,1.659,0.756,2.297,1.646c1.087-0.356,2.235-0.526,3.665-0.515c1.157-0.018,2.137-0.455,3.077-0.95
		c1.691-0.892,3.096-1.453,4.416-1.771C136.845,277.795,138.159,277.577,139.43,277.366 M133.135,275.301
		c-0.043,0.002-0.085,0.003-0.127,0.003c-0.666,0-1.219-0.241-1.565-0.685c-0.358-0.456-0.45-1.063-0.259-1.709
		c0.126-0.426,0.093-0.904,0.056-1.457c-0.04-0.571-0.083-1.204,0.06-1.865c-0.834-1.088-0.653-2.297-0.518-3.207
		c0.037-0.245,0.074-0.49,0.089-0.732c0.017-0.246-0.063-0.534-0.156-0.869c-0.065-0.238-0.13-0.478-0.173-0.719
		c-0.188-1.072-0.507-2.113-0.843-3.217c-0.47-1.544-0.957-3.14-1.072-4.854c-1.571-1.866-0.596-3.867-0.121-4.844
		c0.516-1.055,1.72-1.791,2.997-1.834c1.056-0.037,1.956,0.434,2.423,1.248c0.362,0.633,0.938,1.022,1.603,1.474
		c0.545,0.368,1.106,0.75,1.599,1.301c-0.012-0.026,0.14-0.009,0.288-0.045c0.95-0.228,1.858-0.196,2.736-0.168
		c0.7,0.021,1.36,0.044,1.982-0.07c0.085-0.015,0.173-0.026,0.261-0.04c0.093-0.013,0.233-0.033,0.278-0.05
		c1.498-0.894,3.121-1.146,4.692-1.39c0.432-0.066,0.864-0.133,1.292-0.215c0.201-0.039,0.421-0.147,0.676-0.274
		c0.365-0.183,0.778-0.39,1.3-0.474c0.597-0.097,1.354-0.141,1.912,0.39c0.617,0.581,0.528,1.444,0.5,1.729
		c-0.026,0.262-0.017,0.524-0.011,0.776c0.004,0.11,0.007,0.22,0.008,0.324c0.248,1.651-0.19,3.08-0.615,4.462l-0.096,0.313
		c0.132,2.287-1.377,3.494-2.713,4.564c-0.95,0.761-1.331,2.035-1.17,3.814c0.255,2.838-1.044,4.854-3.564,5.528
		c-1.601,0.431-3.235,0.735-4.815,1.029c-0.714,0.133-1.401,0.421-2.129,0.726c-0.621,0.262-1.264,0.53-1.959,0.717
		c-0.879,0.236-1.726,0.271-2.543,0.306L133.135,275.301z"/>
	<path fill="#FFFFFF" d="M122.468,310.909c0.565-0.79,1.25-1.421,1.912-2.03c0.782-0.721,1.522-1.4,1.971-2.266
		c0.526-1.012,1.069-1.799,1.71-2.479c0.521-0.556,0.905-1.331,1.276-2.082c0.142-0.285,0.28-0.566,0.426-0.835
		c0.755-1.401,1.386-2.95,1.823-4.478c0.134-0.469,0.285-1.006,0.771-1.443c0.901-0.814,1.167-1.952,1.424-3.053
		c0.076-0.329,0.151-0.646,0.237-0.94c0.007-1.478-0.43-2.543-1.149-2.797c-0.631-0.223-1.332-0.437-2.144-0.653
		c-1.482-0.397-1.51-0.404-2.112,1.057c-0.454,1.099-1.197,1.74-2.339,2.023c-0.262,0.063-0.529,0.118-0.796,0.172
		c-0.688,0.14-1.337,0.271-1.825,0.603c-0.125,0.085-0.238,0.194-0.353,0.302c-0.4,0.372-1.086,1.008-2.087,0.848
		c-0.755,1.008-1.796,1.496-2.725,1.932c-0.407,0.191-0.791,0.371-1.133,0.583c-1.139,0.704-2.351,1.19-3.522,1.662
		c-0.952,0.383-1.851,0.743-2.706,1.211c-0.515,0.28-0.52,0.352-0.553,0.807c-0.04,0.55,0.231,0.826,0.955,1.423
		c0.199,0.164,0.396,0.327,0.577,0.5c1.293,1.229,2.493,1.342,4.013,0.379c1.732-1.098,3.311-2.146,4.825-3.201
		c0.641-0.448,1.31-0.709,1.937-0.926c0.19-0.064,0.568-0.195,0.988-0.195c0.442,0,0.929,0.145,1.289,0.66
		c0.452,0.646,0.436,1.494-0.047,2.328c-0.161,0.275-0.315,0.558-0.469,0.838c-0.709,1.295-1.443,2.634-2.769,3.658
		c-0.746,0.578-0.877,0.898-0.898,0.982c-0.481,1.833-1.356,3.436-2.202,4.984c-0.289,0.528-0.577,1.057-0.851,1.593
		c-0.567,1.12-0.144,1.487,0.016,1.625c0.458,0.397,1.12,0.329,1.77-0.183C120.764,312.684,121.76,311.898,122.468,310.909"/>
	<path fill="#FFFFFF" d="M135.324,262.18c-0.467,0.559-0.871,1.039-0.954,1.607c-0.058,0.398-0.129,0.887-0.341,1.381l0.099-0.002
		l0.502-0.005c2.571-0.044,5.261-0.498,8.722-1.472c0.166-0.047,0.338-0.09,0.511-0.133c0.906-0.226,1.476-0.394,1.772-0.974
		c0.424-0.829,0.335-1.922-0.024-2.31c-0.589-0.638-1.582-1.262-2.965-0.616l-0.618,0.291c-1.885,0.894-3.831,1.817-6.171,1.569
		C135.683,261.752,135.501,261.968,135.324,262.18"/>
	<path fill="#FFFFFF" d="M149.336,155.171c0.014-0.718,0.028-1.611,0.558-2.427c0.466-0.719,0.833-1.445,1.123-2.221
		c0.224-0.602,0.542-1.112,0.849-1.607c0.336-0.539,0.653-1.049,0.773-1.581c0.169-0.745,0.447-1.415,0.718-2.063
		c0.221-0.532,0.431-1.034,0.565-1.544c0.237-0.896,0.643-1.679,1.033-2.437c0.415-0.802,0.808-1.56,0.96-2.377
		c0.035-0.189,0.034-0.42,0.032-0.666c-0.002-0.513-0.005-1.151,0.325-1.789c0.538-1.042,0.801-2.194,1.08-3.413
		c0.195-0.859,0.398-1.747,0.709-2.619c0.025-0.074,0.061-0.209,0.004-0.281c-0.062-0.075-0.229-0.137-0.471-0.105
		c-0.839,0.108-1.423,0.511-1.737,1.199c-1.073,2.344-2.276,4.366-3.678,6.18c-0.279,0.362-0.53,0.763-0.794,1.188
		c-0.487,0.78-0.989,1.586-1.745,2.273c-0.015,0.034-0.024,0.07-0.036,0.105c-0.036,0.106-0.074,0.211-0.119,0.311
		c-0.545,1.215-1.354,2.232-2.4,3.024c-0.493,0.372-0.971,0.48-1.421,0.319c-0.396-0.142-0.685-0.48-0.792-0.927
		c-0.026-0.112-0.075-0.216-0.119-0.323c-0.146-0.357-0.349-0.846-0.263-1.483c0.07-0.512,0.115-1.025,0.16-1.539
		c0.108-1.229,0.221-2.501,0.647-3.785c0.207-0.622,0.47-1.187,0.724-1.734c0.149-0.324,0.301-0.649,0.437-0.982
		c0.893-2.19,1.881-4.796,2.453-7.514c0.048-0.23,0.104-0.459,0.159-0.688c0.21-0.868,0.392-1.618,0.142-2.336
		c-0.135-0.388-0.263-0.781-0.39-1.174c-0.476-1.465-0.926-2.848-1.756-4.003c-0.54-0.753-0.839-1.561-1.127-2.343
		c-0.312-0.837-0.604-1.628-1.167-2.215c-0.556-0.579-0.773-1.269-0.597-1.892c0.122-0.432,0.478-1,1.473-1.259
		c0.045-0.026,0.091-0.136,0.088-0.365c-0.01-0.753-0.142-0.931-0.833-1.123c-0.229-0.064-0.45-0.145-0.668-0.225
		c-0.637-0.235-0.828-0.277-1.099-0.122l-0.386,0.213c-0.597,0.326-1.112,0.608-1.323,1.077l-0.143,0.31
		c-0.331,0.723-0.643,1.407-0.766,2.081l-0.048,0.258c-0.396,2.152-0.77,4.185,0.1,6.146c0.299,0.674,0.459,1.366,0.614,2.036
		c0.154,0.671,0.301,1.305,0.568,1.817c0.652,1.246,0.937,2.424,0.842,3.502c-0.023,2.685-0.131,3.078-1.36,5.134
		c-0.218,0.365-0.317,0.712-0.311,1.091c0.023,1.242-0.015,2.292-0.115,3.212c-0.044,0.408-0.08,0.819-0.116,1.23
		c-0.072,0.822-0.146,1.671-0.292,2.522c-0.161,0.941-0.295,1.854-0.169,2.67c0.071,0.465,0.177,0.925,0.282,1.385
		c0.269,1.175,0.547,2.389,0.352,3.734c0.864,0.887,1.161,1.95,1.423,2.889c0.163,0.581,0.317,1.13,0.585,1.576
		c0.396,0.656,0.876,1.66,0.914,2.719c0.034,0.974,0.528,1.653,1.314,2.434c0.248,0.246,0.422,0.515,0.576,0.752
		c0.578,0.889,1.537,1.306,2.471,1.111c0.351-0.073,0.88-0.183,1.107-1.714c0.006-0.049-0.001-0.101-0.003-0.153
		c-0.007-0.149-0.015-0.353,0.024-0.578C149.325,155.798,149.332,155.494,149.336,155.171"/>
	<path fill="#FFFFFF" d="M144.359,101.911c0.545-0.005,1.393-0.563,1.483-0.837c0.136-0.712,0.448-1.288,0.726-1.796
		c0.095-0.174,0.189-0.349,0.276-0.529c1.071-2.239,2.853-3.482,5.605-3.913c1.616-0.252,2.806-0.532,3.409-1.844
		c0.121-0.261,0.178-0.546,0.246-0.875c0.058-0.285,0.124-0.608,0.24-0.938c0.46-1.301,0.037-2.28-1.188-2.757
		c-0.565-0.22-1.122-0.464-1.68-0.709c-1.812-0.793-3.524-1.543-5.433-1.418c-0.451,0.032-0.842-0.135-1.124-0.257l-0.163-0.067
		c-0.274-0.106-0.414-0.092-0.495-0.073c-1.728,0.409-3.188-0.243-4.267-0.858c-0.288-0.164-0.558-0.357-0.827-0.551
		c-0.371-0.267-0.69-0.498-1.041-0.616c-0.069-0.024-0.149-0.036-0.235-0.036c-0.305,0-0.68,0.145-0.959,0.385
		c-0.232,0.199-0.301,0.38-0.288,0.447c0.136,0.773,0.555,1.449,1.245,2.009c1.075,0.871,2.167,1.723,3.258,2.575
		c0.563,0.44,1.128,0.881,1.69,1.325c0.937,0.738,1.34,1.821,1.077,2.898c-0.154,0.64-0.168,1.222-0.039,1.832
		c0.089,0.419-0.021,0.797-0.096,1.047l-0.03,0.105c-0.485,1.798-1.163,3.166-2.13,4.307c-0.063,0.076-0.231,0.275,0.093,0.857
		C143.787,101.752,143.875,101.885,144.359,101.911"/>
	<path fill="#FFFFFF" d="M210.619,141.336c0.446,0.158,0.892,0.333,1.334,0.51c1.498,0.595,2.914,1.157,4.459,0.957
		c0.487-0.063,0.841-0.237,0.969-0.476c0.121-0.227,0.074-0.58-0.132-0.993c-0.302-0.605-0.642-1.326-0.873-2.086
		c-0.022-0.073-0.152-0.232-0.247-0.348c-0.27-0.329-0.676-0.826-0.65-1.541c0.034-0.947-0.341-1.569-1.325-2.171
		c-0.165-0.039-0.317-0.117-0.449-0.23c-0.055-0.047-0.104-0.099-0.146-0.155c-0.604-0.124-0.971-0.447-1.189-0.763l-0.445-0.31
		c-0.627-0.309-1.332-0.657-1.882-1.325l-0.027-0.02c-0.321-0.051-0.788-0.191-1.158-0.613l-0.015-0.011
		c-0.246-0.052-0.465-0.163-0.644-0.326l-1.079-0.283c-0.176-0.047-0.352-0.08-0.524-0.113c-0.557-0.107-1.245-0.24-1.863-0.707
		l-0.293-0.183c-1.911-0.142-3.846-0.546-5.754-1.201c-0.388-0.132-0.727-0.247-1.054-0.461c-1.714-1.123-3.689-1.281-5.569-1.285
		c-0.826-0.001-1.707-0.089-2.548-0.716l-0.196-0.193l-0.449-0.581l-0.078-0.387c-0.027-0.497-0.106-0.999-0.19-1.531
		c-0.192-1.217-0.391-2.475-0.027-3.859c0.104-0.394,0.056-0.912,0.003-1.461c-0.018-0.203-0.036-0.406-0.05-0.606
		c-0.012-0.203-0.045-0.404-0.076-0.606c-0.103-0.667-0.229-1.492,0.176-2.373c-0.015-0.062-0.042-0.156-0.063-0.223
		c-0.036-0.117-0.071-0.235-0.099-0.353c-0.338-1.464-0.568-3.365,0.661-5.081l0.176-0.189l0.396-0.326
		c0.355-0.309,0.756-0.528,1.181-0.643l0.191-0.111c0.633-0.91,1.608-1.237,2.495-1.433c0.588-0.131,1.155-0.368,1.757-0.62
		c0.467-0.195,0.949-0.397,1.464-0.557c0.625-0.194,1.233-0.474,1.876-0.771c1.341-0.618,2.729-1.252,4.453-1.213
		c0.214,0.003,0.393-0.066,0.552-0.226c0.314-0.319,0.504-0.924,0.48-1.54c-0.034-0.931-0.42-1.759-0.829-2.636
		c-0.103-0.218-0.203-0.436-0.3-0.656c-0.148-0.334-0.542-0.464-1.372-0.627c-1.882-0.372-3.623-0.716-5.343,0.001
		c-0.308,0.128-0.605,0.202-0.895,0.274c-0.365,0.091-0.681,0.17-0.919,0.336c-0.533,0.374-1.14,0.546-1.677,0.697l-0.118,0.034
		c-0.794,0.225-1.479,0.165-2.035-0.181c-0.581-0.36-0.961-1.001-1.128-1.903c-0.205-1.105-0.13-2.198,0.236-3.439
		c-0.124-0.231-0.435-0.69-0.196-1.246c0.183-0.423,0.124-0.945,0.058-1.549c-0.089-0.81-0.19-1.727,0.271-2.658
		c1.08-2.179,0.997-4.05-0.264-5.886c-0.239-0.349-0.372-0.703-0.49-1.015c-0.091-0.242-0.17-0.452-0.279-0.607
		c-0.65-0.927-1.18-1.355-1.889-1.529c-0.414-0.101-0.817-0.322-1.27-0.697c-0.901-0.748-1.938-0.618-3.319-0.167
		c-0.886,0.29-1.109,1.584-0.809,2.618c0.281,0.971,0.805,1.796,1.363,2.625c0.755,1.123,0.799,2.4,0.838,3.526
		c0.015,0.406,0.027,0.811,0.077,1.203c0.043,0.331,0.064,0.671,0.087,1.012c0.029,0.464,0.057,0.901,0.144,1.294
		c0.217,0.98,0.451,2.047,0.048,3.184c0.549,0.977,0.563,1.988,0.577,2.89c0.006,0.376,0.013,0.731,0.056,1.061
		c0.304,2.326-0.759,4.289-2.774,5.122c-0.612,0.254-1.168,0.631-1.757,1.03c-0.503,0.341-1.021,0.693-1.608,0.989
		c-0.322,0.163-0.65,0.321-0.978,0.481c-0.756,0.367-1.537,0.746-2.256,1.176c-0.314,0.188-0.608,0.426-0.919,0.678
		c-0.306,0.246-0.62,0.5-0.98,0.73c-0.356,0.229-0.713,0.46-1.069,0.691c-1.83,1.19-3.724,2.421-5.855,3.238
		c-0.944,0.361-2.019,0.599-3.193,0.706c-0.416,0.038-0.964,0.164-1.21,0.548c-0.203,0.318-0.196,0.824,0.018,1.423
		c0.275,0.774,0.703,1.132,1.689,1.417c0.353,0.102,0.699,0.265,1.003,0.472c1.371,0.93,2.513,1.298,3.705,1.187
		c0.468-0.043,0.988,0.083,1.392,0.336c0.323,0.203,0.644,0.327,1.278-0.242c0.604-0.54,1.27-0.882,1.913-1.213
		c0.55-0.281,1.068-0.548,1.482-0.911c0.191-0.168,0.407-0.31,0.626-0.45c0.228-0.146,0.425-0.271,0.521-0.412
		c0.47-0.689,1.296-0.964,2.059-0.687c0.496,0.181,0.729,0.507,0.838,0.749c0.255,0.565,0.042,1.109-0.061,1.37
		c-0.307,0.796-0.625,1.536-0.943,2.277l-0.463,1.016l-0.622,0.845c-0.034,0.421-0.246,0.797-0.606,1.067l-0.066,0.151
		c-0.201,0.827-0.768,1.306-1.187,1.66c-0.085,0.071-0.171,0.142-0.251,0.216c-0.213,0.606-0.617,1.012-0.956,1.346
		c-0.043,0.146-0.122,0.303-0.258,0.462l-0.18,0.212c-0.049,0.279-0.182,0.537-0.389,0.751c-0.137,0.317-0.338,0.549-0.483,0.719
		c-0.003,0.003-0.006,0.007-0.011,0.011c-0.093,0.41-0.268,1.067-0.923,1.456l-0.424,0.614c-0.047,0.321-0.207,0.534-0.322,0.65
		c-0.099,0.1-0.27,0.234-0.518,0.301l-0.262,0.261c-0.183,0.697-0.499,1.369-0.946,2.003l-0.118,0.138
		c-0.356,0.35-0.658,0.787-0.977,1.249c-0.33,0.477-0.67,0.97-1.107,1.42c-0.184,0.191-0.362,0.394-0.54,0.597
		c-0.813,0.928-1.828,2.082-3.579,2.199c-0.761,0.05-1.267,0.616-1.558,1.081l-0.081,0.13c-0.843,1.348-1.639,2.622-1.797,4.136
		c-0.042,0.396-0.001,0.698,0.113,0.827c0.092,0.106,0.311,0.17,0.617,0.18c1.036,0.035,2.085-0.133,3.392-0.546l0.618-0.193
		c2.231-0.694,4.34-1.35,5.813-3.08c0.464-0.545,1.002-0.946,1.523-1.333c0.63-0.469,1.174-0.873,1.47-1.44
		c0.355-0.679,0.788-1.265,1.207-1.831c0.254-0.343,0.509-0.686,0.739-1.048c1.238-1.948,2.919-3.137,4.992-3.534
		c0.209-0.04,0.41-0.059,0.601-0.059c0.507,0,0.944,0.139,1.286,0.413c0.399,0.322,0.629,0.81,0.646,1.376l0.043,1.273
		c0.041,1.159,0.082,2.357,0.07,3.549c-0.008,0.919-0.119,1.803-0.228,2.658l-0.089,0.727c-0.113,0.99-0.047,1.993,0.024,3.055
		c0.079,1.19,0.161,2.421-0.021,3.684c-0.059,0.41-0.021,0.583-0.003,0.638c0.72,2.123,0.59,4.243,0.465,6.294l-0.031,0.542
		c-0.061,1.034,0.271,1.939,0.622,2.897c0.141,0.385,0.28,0.769,0.398,1.161c0.236,0.784,0.521,1.587,1.13,2.023
		c0.779,0.559,0.723,1.502,0.696,1.904c-0.015,0.233-0.019,0.313,0.825,0.619l0.121,0.045c0.231,0.085,0.401-0.207,0.448-0.299
		c0.601-1.195,0.961-2.15,0.898-3.219c-0.079-1.39,0.161-2.731,0.396-4.029l0.134-0.766c0.238-1.409,0.475-2.807,0.358-4.009
		c-0.142-1.479-0.104-2.951-0.069-4.374c0.042-1.693,0.082-3.292-0.151-4.909c-0.29-2.008-0.242-4.29,0.15-7.182
		c0.06-0.445,0.205-1.084,0.768-1.491c0.404-0.293,0.916-0.384,1.521-0.271c1.372,0.255,2.825,0.658,4.574,1.266
		c2.853,0.991,5.005,2.086,6.773,3.447c0.014,0.003,0.13,0.036,0.207,0.058c1.622,0.465,3.48,1.066,5.048,2.333
		c0.454,0.367,0.778,0.397,0.985,0.385c0.804-0.042,1.447,0.221,2.012,0.453C210.308,141.217,210.461,141.281,210.619,141.336"/>
	<path fill="#FFFFFF" d="M96.704,9.916c0.617,0.158,1.162-0.057,1.755-0.362c0.787-0.404,1.65-0.102,2.473,0.073
		c0.557,0.118,1.085,0.362,1.674,0.348c0.722-0.017,0.911-0.226,0.86-0.944c-0.022-0.332,0.224-0.534,0.509-0.468
		c0.883,0.204,1.826,0.148,2.647,0.621c0.324,0.187,0.558,0.452,0.788,0.734c0.536,0.653,0.927,0.711,1.617,0.269
		c0.995-0.637,1.296-0.61,1.996,0.314c0.364,0.481,0.763,0.293,1.115,0.115c0.935-0.474,1.85-0.453,2.702,0.101
		c1.308,0.848,2.627,1.684,3.796,2.729c0.363,0.326,0.844,0.47,1.182,0.874c0.33,0.395,0.509,0.819,0.533,1.288
		c0.027,0.554,0.237,1.026,0.608,1.367c0.714,0.657,0.813,1.408-0.022,2.21c-0.551,0.528-0.549,0.777-0.025,1.329
		c0.278,0.294,0.522,0.61,0.724,0.96c0.403,0.702,0.219,1.705-0.306,2.324c-0.649,0.768-1.538,1.249-2.22,1.972
		c-0.323,0.343-0.427,0.621-0.096,1.034c0.408,0.511,0.436,1.133-0.041,1.621c-0.665,0.681-0.951,1.506-1.202,2.373
		c-0.085,0.295-0.229,0.563-0.413,0.812c-0.426,0.573-0.859,1.109-1.065,1.849c-0.229,0.823-1.421,0.899-1.9,0.168
		c-0.234-0.357-0.469-0.375-0.747-0.154c-0.785,0.622-1.731,0.396-2.607,0.505c-0.49,0.061-0.802-0.522-0.586-0.988
		c0.264-0.572,0.572-1.118,1.092-1.506c0.115-0.086,0.212-0.172,0.178-0.327c-0.033-0.149-0.168-0.124-0.277-0.147
		c-0.315-0.067-0.612-0.193-0.93-0.263c-0.605-0.133-0.938-0.879-0.691-1.464c0.106-0.252,0.113-0.454-0.084-0.68
		c-0.674-0.777-0.342-2.071,0.839-2.246c0.542-0.081,0.736-0.328,0.729-0.922c-0.012-0.869-0.356-1.691-0.266-2.563
		c0.017-0.149-0.005-0.317-0.212-0.351c-0.264-0.043-0.362,0.158-0.378,0.337c-0.048,0.51-0.286,0.899-0.644,1.243
		c-0.366,0.351-0.812,0.574-1.264,0.773c-0.44,0.196-0.857-0.057-0.738-0.51c0.251-0.957-0.021-2.064,0.853-2.859
		c0.365-0.334,0.167-0.873-0.29-1.088c-0.189-0.09-0.381-0.165-0.581-0.232c-0.732-0.246-1.05-0.009-1.362,0.72
		c-0.316,0.74-0.298,1.531-0.523,2.278c-0.103,0.339-0.254,0.516-0.594,0.595c-0.532,0.124-0.907,0.358-0.989,1.013
		c-0.074,0.584-0.664,0.547-1.113,0.538c-0.882-0.017-1.547-0.34-1.884-1.254c-0.208-0.563-0.837-0.604-1.347-0.74
		c-0.869-0.233-1.546-0.714-1.949-1.524c-0.211-0.422-0.427-0.839-0.499-1.332c-0.088-0.606-0.612-0.779-1.14-0.859
		c-0.265-0.04-0.537-0.015-0.806-0.026c-0.669-0.028-1.262-0.133-1.558-0.884c-0.167-0.423-0.613-0.536-1.023-0.35
		c-0.359,0.164-0.755,0.251-1.078,0.503c-0.615,0.481-1.208,0.021-1.789-0.099c-1.218-0.252-2.252-0.889-2.363-2.207
		c-0.125-1.472-0.224-1.988,1.502-2.397c0.661-0.156,1.245-0.569,1.943-0.62c0.067-0.005,0.177-0.069,0.186-0.119
		c0.09-0.545,0.646-0.606,0.926-0.921c0.463-0.522,1.056-0.869,1.533-1.344c0.655-0.651,1.476-0.893,2.291-1.182
		C96.308,9.917,96.492,9.936,96.704,9.916"/>
	<path fill="#FFFFFF" d="M104.273,37.212c-0.303,0.489-0.405,1.009-0.831,1.371c-0.287,0.244-0.574,0.377-0.872,0.229
		c-0.316-0.157-0.692-0.364-0.717-0.788c-0.054-0.878-0.023-1.749,0.386-2.567c0.238-0.476,0.745-0.779,1.265-0.62
		c0.318,0.097,0.422,0.027,0.55-0.268c0.27-0.629,0.154-1.284,0.2-1.926c0.021-0.286-0.209-0.333-0.435-0.328
		c-0.599,0.014-0.821-0.381-0.964-0.87c-0.233-0.794,0.082-1.598-0.044-2.4c-0.046-0.293,1.103-1.156,1.405-1.12
		c0.36,0.042,0.466,0.36,0.624,0.609c0.059,0.091,0.025,0.243,0.088,0.328c0.179,0.249,0.239,0.683,0.62,0.658
		c0.324-0.021,0.529-0.313,0.647-0.636c0.113-0.308,0.312-0.499,0.675-0.517c0.355-0.019,0.612,0.109,0.739,0.419
		c0.1,0.242,0.269,0.419,0.434,0.596c0.388,0.415,0.436,0.9,0.272,1.394c-0.289,0.881-0.622,1.747-0.946,2.615
		c-0.052,0.141-0.129,0.292-0.239,0.387c-0.757,0.648-0.782,1.561-0.636,2.377c0.09,0.504,0.237,1.012,0.267,1.535
		c0.034,0.642-0.388,1.007-1.016,0.835c-0.333-0.091-0.754-0.005-0.981-0.359C104.583,37.884,104.58,37.506,104.273,37.212"/>
	<path fill="#FFFFFF" d="M56.071,36.917c0.24-0.826-0.057-1.84,0.398-2.759c0.175-0.354-0.064-0.56-0.332-0.682
		c-0.563-0.256-0.836-0.731-1.082-1.256c-0.217-0.461-0.463-0.912-0.734-1.344c-0.235-0.374-0.328-0.766-0.321-1.198
		c0.004-0.257-0.001-0.513,0.294-0.622c0.29-0.107,0.534,0.019,0.726,0.216c0.319,0.329,0.655,0.63,1.042,0.88
		c0.27,0.176,0.411,0.057,0.45-0.19c0.075-0.479,0.061-0.947-0.268-1.361c-0.245-0.309-0.451-0.665-0.096-1.021
		c0.425-0.426,0.901-0.436,1.323-0.099c0.312,0.249,0.655,0.456,0.962,0.711c0.212,0.177,0.476,0.371,0.339,0.715
		c-0.122,0.307-0.41,0.306-0.684,0.315c-0.682,0.022-0.806,0.167-0.727,0.847c0.091,0.786,0.615,1.214,1.42,1.162
		c0.355-0.023,0.647,0.102,0.796,0.433c0.157,0.354,0.088,0.738-0.22,0.934c-0.521,0.331-0.835,1.093-1.674,0.835
		c-0.155-0.047-0.447,0.042-0.463,0.326c-0.02,0.335,0.188,0.569,0.42,0.775c0.187,0.168,0.354,0.069,0.506-0.069
		c0.07-0.065,0.137-0.134,0.205-0.202c0.273-0.275,0.593-0.467,0.977-0.284c0.367,0.175,0.238,0.546,0.194,0.825
		c-0.092,0.591,0,0.986,0.713,0.991c0.197,0.001,0.361,0.155,0.395,0.36c0.032,0.197-0.133,0.312-0.275,0.403
		c-0.475,0.305-0.969,0.551-1.563,0.421c-0.473-0.104-0.814,0.06-1.048,0.489c-0.37,0.682-0.667,0.845-1.223,0.681
		C55.903,37.968,56.138,37.447,56.071,36.917"/>
	<path fill="#FFFFFF" d="M64.635,3.221c0.057-0.293-0.103-0.703,0.139-1.076c0.793-1.228,1.869-1.683,3.133-0.955
		c0.471,0.271,0.604,0.079,0.748-0.253C68.841,0.504,68.957,0.002,69.556,0c0.635-0.003,0.999,0.354,1.327,0.902
		c0.399,0.663,0.471,1.436,0.856,2.093c0.12,0.205-0.411,0.765-0.772,0.809c-0.774,0.096-1.492-0.047-2.073-0.611
		c-0.149-0.144-0.297-0.146-0.473-0.09c-0.219,0.071-0.282,0.238-0.29,0.445c-0.016,0.514,0.022,1.027-0.193,1.525
		c-0.243,0.563-0.646,0.815-1.264,0.707C65.27,5.534,64.518,5.011,64.635,3.221"/>
	<path fill="#FFFFFF" d="M68.313,37.599c0.001,0.139-0.133,0.345-0.31,0.475c-0.475,0.349-0.931,0.796-1.614,0.55
		c-0.242-0.087-0.436,0.01-0.64,0.143c-0.151,0.099-0.37,0.226-0.53,0.099c-0.166-0.13-0.188-0.358-0.104-0.578
		c0.047-0.124,0.068-0.259,0.093-0.391c0.088-0.458-0.119-0.657-0.575-0.507c-0.504,0.164-0.991,0.384-1.356,0.788
		c-0.803,0.89-2.004,1.229-2.844,2.065c-0.063,0.063-0.17,0.087-0.26,0.12c-0.379,0.141-0.529-0.018-0.543-0.397
		c-0.016-0.466,0.291-0.78,0.597-0.998c1.014-0.726,1.81-1.726,2.959-2.285c0.777-0.377,1.855-0.312,2.53,0.253
		c0.183,0.152,0.308,0.061,0.441-0.072c0.188-0.188,0.378-0.355,0.649-0.447C67.545,36.166,68.337,36.711,68.313,37.599"/>
	<path fill="#FFFFFF" d="M59.585,12.227c-0.056,0.296-0.143,0.561-0.4,0.688c-0.221,0.108-0.428,0.025-0.637-0.122
		c-0.543-0.38-1.071-0.778-1.687-1.06c-0.699-0.319-0.803-0.941-0.325-1.491c0.118-0.137,0.273-0.264,0.447-0.205
		c1.058,0.359,2.05,0.815,2.521,1.939C59.541,12.063,59.563,12.156,59.585,12.227"/>
	<path fill="#FFFFFF" d="M54.625,33.525c0.587,0.058,1.002,0.421,0.962,0.767c-0.045,0.39-0.32,0.52-0.652,0.464
		c-0.435-0.074-0.714-0.386-0.755-0.809C54.146,33.604,54.455,33.549,54.625,33.525"/>
	<path fill="#FFFFFF" d="M100.079,34.861c-0.179-0.23-0.545-0.174-0.772,0.142c-0.145,0.2-0.336,0.368-0.521,0.535
		c-0.215,0.195-0.38,0.181-0.539-0.104c-0.357-0.636-0.13-1.177,0.577-1.303c0.726-0.129,1.38-0.638,1.351-1.112
		c-0.086-1.42,0.027-2.839-0.001-4.258c-0.007-0.389-0.083-0.701-0.408-0.951c-0.316-0.242-0.375-0.527-0.112-0.892
		c0.234-0.326,0.359-0.729,0.244-1.139c-0.233-0.822-0.77-1.487-1.348-2.059c-0.692-0.687-1.705-0.947-2.463-1.576
		c-0.477-0.397-1.051-0.636-1.507-1.087c-0.539-0.532-1.251-1.086-1.99-1.02c-1.068,0.095-2.158,0.205-3.211,0.493
		c-0.462,0.126-0.942,0.077-1.289-0.285c-0.484-0.506-1.068-0.87-1.665-1.2c-0.829-0.458-1.675-0.843-2.697-0.524
		c-1.091,0.339-2.044,0.993-3.165,1.269c-0.512,0.126-0.91,0.184-1.32-0.172c-0.413-0.36-0.858-0.678-1.216-1.107
		c-0.428-0.512-1.137-0.592-1.652-0.976c-0.388-0.289-0.826-0.272-1.198-0.119c-1.49,0.612-3.006,1.155-4.513,1.724
		c-1.883,0.711-3.789,1.358-5.67,2.073c-0.59,0.225-1.005-0.1-0.944-0.715c0.117-1.167,0.055-2.337,0.041-3.505
		c-0.004-0.324-0.086-0.648-0.078-0.971c0.007-0.301,0.202-0.506,0.511-0.521c0.292-0.015,0.463,0.143,0.454,0.459
		c-0.004,0.115,0.004,0.243,0.119,0.306c0.652,0.354,0.867,0.965,1.021,1.639c0.046,0.201,0.249,0.378,0.406,0.541
		c0.385,0.403,0.888,0.484,1.377,0.318s0.368-0.646,0.364-1.04c0-0.096,0-0.193-0.014-0.288c-0.154-1.044-0.235-2.13-1.475-2.551
		c-0.166-0.056-0.224-0.216-0.208-0.374c0.042-0.435,0.075-0.875,0.162-1.303c0.171-0.837,0.278-0.897,1.057-0.594
		c0.425,0.165,0.834,0.339,1.227-0.033c0.433-0.41,0.819-0.868,1.492-0.908c0.132-0.008,0.256-0.263,0.371-0.413
		c0.476-0.619,0.906-1.28,1.638-1.642c0.181-0.09,0.283-0.281,0.209-0.426c-0.243-0.465-0.307-1.027-0.738-1.393
		c-0.437-0.37-0.441-0.649-0.03-1.022c0.474-0.428,0.493-0.688,0.148-1.241c-0.148-0.237-0.42-0.317-0.572-0.539
		c-0.361-0.526-0.966-0.7-1.412-0.41C69.758,4.82,69.752,5.446,69.97,5.98c0.217,0.529,0.758,0.835,0.854,1.463
		c0.047,0.312,0.146,0.565-0.159,0.706c-0.328,0.152-0.64,0.042-0.822-0.302c-0.144-0.271-0.255-0.562-0.425-0.814
		c-0.502-0.751-1.334-0.773-1.93-0.12c-0.315,0.347-0.463,0.835-0.918,1.062c-0.193,0.096-0.298,0.432-0.565,0.298
		c-0.259-0.13-0.264-0.445-0.296-0.703c-0.076-0.618-0.475-1.069-1.145-1.211c-0.569-0.12-0.874,0.259-1.143,0.669
		c-0.094,0.143-0.15,0.309-0.244,0.452c-0.283,0.43-0.175,0.924-0.247,1.389c-0.031,0.199-0.033,0.559-0.37,0.416
		c-0.243-0.104-0.387-0.41-0.653-0.533c0.017,0.009,0.033,0.018,0.05,0.026c0.029-0.313,0.049-0.627,0.092-0.938
		c0.015-0.109,0.102-0.208,0.129-0.318c0.064-0.261,0.157-0.528-0.014-0.849c0.002-0.01,0.004-0.021,0.007-0.031
		c0.187-0.66,0.204-1.262-0.412-1.737c-0.193-0.15-0.403-0.336-0.494-0.553c-0.286-0.683-0.866-0.651-1.41-0.581
		c-0.774,0.101-0.968,0.307-0.822,0.798c0.153,0.512,0.17,1.027,0.122,1.536c-0.09,0.931,0.165,1.67,0.91,2.279
		c0.798,0.652,1.325,1.428,1.25,2.579c-0.032,0.487,0.038,1.184,0.69,1.462c0.583,0.248,0.619,0.663,0.337,1.257
		c-0.484-0.546-1.09-0.604-1.739-0.605c-0.549-0.001-0.824,0.447-1.254,0.632c-0.561,0.241-0.395,0.74-0.331,1.151
		c0.056,0.359,0.342,0.517,0.724,0.509c0.299-0.007,0.639-0.093,0.878,0.154c0.28,0.289,0.636,0.406,0.991,0.543
		c0.723,0.278,0.779,0.361,0.628,1.148c-0.203,1.057-0.343,2.11-0.19,3.194c0.077,0.552,0.221,0.948,0.847,1.037
		c0.144,0.02,0.416-0.021,0.451,0.26c0.029,0.237-0.157,0.354-0.299,0.456c-0.677,0.492-1.361,0.972-2.06,1.433
		c-1,0.661-2.021,1.292-3.016,1.959c-0.209,0.14-0.428,0.343-0.379,0.659c0.035,0.23,0.235,0.307,0.415,0.344
		c0.599,0.124,1.198,0.255,1.806,0.32c0.547,0.059,0.772,0.311,0.765,0.854c-0.017,1.17-0.008,2.341-0.008,3.512
		c0,0.288-0.029,0.591,0.133,0.841c0.286,0.441,0.362,0.909,0.329,1.425c-0.029,0.47,0.392,1.007,0.841,1.098
		c0.694,0.139,1.392,0.3,2.093,0.345c0.493,0.031,0.793,0.181,1.061,0.601c0.43,0.678,0.839,0.732,1.569,0.289
		c0.269-0.164,0.534-0.275,0.856-0.266c0.959,0.023,1.918,0.028,2.877,0.049c0.177,0.004,0.415-0.055,0.443,0.235
		c0.023,0.248-0.141,0.405-0.332,0.49c-0.223,0.1-0.479,0.121-0.707,0.211c-0.722,0.284-1.063,1.038-0.745,1.575
		c0.523,0.886,2.443,1.108,2.932,0.115c0.184-0.372,0.54-0.618,0.898-0.761c0.373-0.15,0.541-0.253,0.262-0.631
		c-0.061-0.083-0.07-0.234,0.053-0.307c0.14-0.082,0.296-0.084,0.437,0.004c0.127,0.081,0.083,0.199,0.04,0.306
		c-0.035,0.089-0.077,0.176-0.126,0.258c-0.242,0.401-0.063,0.732,0.188,1.032c0.25,0.3,0.537,0.208,0.813,0.023
		c0.127-0.086,0.261-0.037,0.392-0.027c0.458,0.035,0.76-0.123,0.746-0.632c-0.008-0.353,0.188-0.39,0.479-0.396
		c0.379-0.007,0.692,0.226,1.055,0.242c1.313,0.058,2.496,0.694,3.796,0.828c1.533,0.157,2.993,0.812,4.572,0.681
		c0.485-0.039,0.94,0.094,1.398,0.263c0.734,0.27,1.534,0.319,2.242,0.05c0.439-0.167,0.717-0.256,1.144-0.006
		c0.456,0.268,1.009,0.289,1.485,0.023c0.338-0.187,0.302-0.583,0.318-0.931c0.011-0.218-0.155-0.343-0.212-0.52
		c-0.073-0.228-0.11-0.504,0.075-0.652c0.342-0.274,0.769-0.161,1.165-0.115c0.242,0.027,0.279,0.223,0.283,0.429
		c0.014,0.619,0.285,1.174,0.483,1.739c0.21,0.597,1,0.836,1.407,0.47c0.269-0.242,0.561-0.501,0.719-0.815
		c0.331-0.654,0.763-1.005,1.535-0.884c0.258,0.04,0.662,0.031,0.711-0.302c0.092-0.637,0.41-1.013,0.966-1.31
		c0.253-0.135,0.52-0.315,0.748-0.514C100.312,35.517,100.262,35.096,100.079,34.861 M60.122,26.11
		c-0.264-0.039-0.592-0.003-0.664-0.325c-0.079-0.348,0.229-0.535,0.466-0.717c0.101-0.077,0.255-0.081,0.376-0.135
		c0.607-0.273,1.164-0.545,1.591-1.148c0.476-0.672,1.169-1.179,2.023-1.406c0.593-0.158,1.04,0.023,1.455,0.414
		c1.387,1.309,2.545,2.836,3.957,4.12c0.333,0.303,0.192,0.488-0.149,0.608c-0.158,0.056-0.334,0.067-0.4,0.079
		c-0.313-0.014-0.5-0.05-0.704-0.133c-0.384-0.157-0.814-0.312-1.216-0.291c-1.217,0.061-2.333-0.406-3.502-0.574
		C62.275,26.447,61.2,26.269,60.122,26.11 M63.938,33.31c-0.26-0.001-0.322-0.216-0.326-0.444c-0.006-0.269,0.071-0.534,0.361-0.543
		c0.283-0.009,0.221,0.29,0.268,0.46C64.192,33.008,64.282,33.312,63.938,33.31 M66.774,34.028
		c-0.452,0.004-0.867-0.504-0.875-1.072c-0.005-0.387,0.255-0.476,0.561-0.488c0.433-0.017,0.757,0.405,0.755,1.008
		C67.156,33.692,67.193,34.025,66.774,34.028 M68.637,31.326c-1.414-0.058-2.795-0.431-4.22-0.398
		c-0.495,0.012-0.978-0.2-1.163-0.743c-0.201-0.592-0.37-1.195-0.508-1.649c0.009-0.623,0.224-0.779,0.647-0.595
		c0.297,0.128,0.604,0.09,0.901,0.085c1.009-0.013,1.982,0.141,2.949,0.426c0.338,0.099,0.726,0.071,1.086,0.046
		c0.44-0.03,0.807,0.22,1.226,0.266c0.237,0.027,0.313,0.288,0.214,0.448c-0.252,0.41-0.169,0.851-0.196,1.28
		C69.531,31.189,69.318,31.353,68.637,31.326 M69.575,34.226c-0.42-0.039-0.729-0.182-0.695-0.584
		c0.027-0.306-0.016-0.763,0.519-0.729c0.456,0.028,0.703,0.324,0.721,0.751C70.135,34.032,69.849,34.173,69.575,34.226
		 M69.796,25.129c-0.198-0.213-0.318-0.465-0.51-0.669c-0.619-0.661-1.148-1.418-2.013-1.817c-0.19-0.088-0.433-0.238-0.378-0.52
		c0.052-0.274,0.21-0.478,0.487-0.592c1.629-0.666,3.272-1.295,4.866-2.034c0.619-0.287,1.297-0.397,1.886-0.749
		c0.325-0.194,0.704-0.154,1.11-0.147c0.963-0.121,1.643,0.581,2.427,1c0.417,0.222,0.781,0.546,1.164,0.83
		c0.363,0.269,0.434,0.552,0.062,0.89c-1.507,1.376-3.104,2.625-4.932,3.554c-0.289,0.147-0.42,0.389-0.384,0.703
		c0.042,0.368-0.143,0.575-0.447,0.718c-0.377,0.176-0.752,0.355-1.129,0.531c-0.256,0.12-0.468,0.017-0.601-0.187
		C70.991,26.006,70.3,25.67,69.796,25.129 M74.715,28.011c1.109-0.669,2.308-1.146,3.51-1.607c0.349-0.133,0.63-0.327,0.888-0.586
		c0.498-0.502,0.73-0.496,1.23,0.028c0.512,0.534,0.923,1.157,1.488,1.647c0.775,0.67,1.432,1.453,2.06,2.26
		c0.092,0.119,0.231,0.229,0.141,0.402c-0.078,0.15-0.236,0.084-0.309,0.092c-1.916-0.396-3.873-0.257-5.677-1.057
		c-0.529-0.235-1.194-0.252-1.808-0.198c-0.563,0.05-1.053-0.129-1.529-0.386c-0.13-0.069-0.305-0.112-0.299-0.308
		C74.416,28.108,74.584,28.091,74.715,28.011 M73.204,34.737c-0.429-0.003-0.428-0.289-0.43-0.473
		c-0.03-0.371,0.021-0.575,0.346-0.559c0.343,0.016,0.454,0.223,0.45,0.535C73.567,34.497,73.586,34.739,73.204,34.737 M76,35.326
		c-0.342-0.017-0.413-0.291-0.41-0.568c0.003-0.239,0.139-0.377,0.4-0.367c0.353,0.014,0.357,0.262,0.365,0.456
		C76.339,35.135,76.261,35.339,76,35.326 M76.42,32.829c-0.072,0.005-0.113-0.085-0.102-0.172c0.014-0.112,0.098-0.164,0.185-0.197
		c0.356-0.138,0.712-0.136,1.042,0.065c0.203,0.124,0.384,0.284,0.647,0.485C77.492,33.244,76.987,32.788,76.42,32.829
		 M79.156,36.263c-0.387,0.06-0.939-0.556-0.959-0.986c-0.017-0.367,0.145-0.508,0.512-0.505c0.532,0.004,0.938,0.278,0.947,0.737
		C79.571,35.782,79.587,36.197,79.156,36.263 M82.847,36.564c-0.472,0.137-0.99,0.303-1.395-0.111
		c-0.201-0.207-0.31-0.535-0.246-0.85c0.04-0.2,0.245-0.364,0.415-0.344c0.45,0.052,0.914-0.005,1.351,0.161
		c0.236,0.09,0.282,0.287,0.286,0.517C83.224,36.208,83.131,36.482,82.847,36.564 M87.97,36.894
		c-0.074,0.448-0.42,0.577-0.863,0.563c-0.825-0.026-1.648-0.039-2.448-0.275c-0.507-0.148-0.761-0.929-0.436-1.34
		c0.099-0.127,0.215-0.181,0.399-0.141c0.24,0.051,0.494,0.041,0.689,0.053c0.753-0.065,1.426,0.044,2.063,0.339
		C87.718,36.251,88.038,36.478,87.97,36.894 M93.23,35.672c-0.456,0.011-0.893-0.001-1.334-0.214
		c-0.686-0.33-1.451-0.428-2.191-0.593c-0.354-0.079-0.529-0.162-0.336-0.618c0.294-0.693-0.475-0.687-0.793-0.948
		c-0.287-0.236-0.672-0.173-0.92,0.128c-0.143,0.171,0.037,0.36,0.132,0.521c0.169,0.282,0.494,0.399,0.831,0.722
		c-0.831,0.148-1.579,0.139-2.238-0.055c-1.332-0.394-2.687-0.534-4.054-0.631c-0.519-0.037-1.01-0.124-1.491-0.336
		c-0.39-0.172-0.831-0.083-1.248-0.121c-0.171-0.016-0.351,0.008-0.514-0.034c-0.83-0.216-0.826-0.221-0.39-0.904
		c0.05-0.078,0.042-0.193,0.094-0.268c0.181-0.264,0.471-0.526,0.196-0.856c-0.291-0.35-0.694-0.559-1.169-0.484
		c-0.471,0.074-0.896-0.05-1.345-0.164c-0.77-0.198-1.567-0.141-2.341-0.038c-0.312,0.041-0.678,0.301-0.465,0.802
		c0.084,0.199,0.118,0.435-0.112,0.627c-0.245,0.205-0.388-0.034-0.568-0.087c-0.82-0.243-1.329-0.718-1.221-1.656
		c0.04-0.341-0.196-0.614-0.283-0.926c-0.093-0.329,0.024-0.434,0.328-0.404c0.621,0.063,1.271,0.017,1.774,0.512
		c0.212,0.208,0.496,0.244,0.797,0.249c1.027,0.016,2.048,0.186,3.063,0.299c0.853,0.095,1.755,0.309,2.559,0.701
		c0.3,0.146,0.592,0.169,0.89,0.151c0.947-0.057,1.837,0.201,2.75,0.388c1.021,0.208,2.057,0.44,3.117,0.334
		c0.876-0.088,1.737-0.104,2.598,0.183c0.348,0.117,0.77,0.097,1.143,0.04c0.993-0.152,1.893,0.207,2.821,0.43
		c0.229,0.055,0.42,0.203,0.399,0.426c-0.062,0.683,0.151,1.315,0.264,1.97C94.098,35.556,93.968,35.653,93.23,35.672
		 M85.746,29.103c0.349-0.361,0.866-0.486,1.156-0.908c0.481-0.702,1.226-1.051,1.944-1.429c0.46-0.241,0.851-0.131,1.249,0.214
		c0.866,0.753,1.558,1.66,2.32,2.505c0.214,0.237,0.496,0.413,0.73,0.634c0.221,0.211,0.514,0.465,0.372,0.777
		c-0.144,0.317-0.546,0.291-0.871,0.363c-0.389-0.094-0.792-0.151-1.164-0.292c-0.678-0.259-1.385-0.262-2.088-0.317
		c-1.158-0.09-2.337,0-3.46-0.4C85.345,30.041,85.293,29.573,85.746,29.103 M94.235,28.447c-0.335-0.489-0.757-0.842-1.204-1.225
		c-0.509-0.437-1.01-0.909-1.571-1.272c-0.874-0.567-1.813-0.944-2.786-0.28c-1.009,0.689-2.142,1.175-3.281,1.623
		c-0.251,0.099-0.48,0.215-0.671,0.423c-0.33,0.359-0.722,0.348-1.071,0.042c-0.946-0.825-1.96-1.58-2.737-2.585
		c-0.278-0.359-0.624-0.492-1.099-0.441c-0.609,0.065-1.229,0.022-1.841,0.044c-0.597,0.022-1.153,0.201-1.691,0.457
		c-0.411,0.196-0.876,0.012-1.303,0.19c0.577-0.623,1.202-1.081,2.046-1.251c0.838-0.169,1.646-0.437,2.356-0.989
		c0.595-0.461,1.384-0.589,2.03-1.018c0.449-0.298,0.646-0.6,0.646-1.098c0-0.867,0.143-1.027,0.974-1.108
		c0.346-0.033,0.672-0.116,0.975-0.305c0.457-0.285,0.875-0.198,1.331,0.086c0.901,0.56,1.733,1.234,2.654,1.744
		c0.683,0.378,1.481,0.462,2.252,0.042c1.83-0.997,2.382-0.709,3.554,0.299c0.35,0.3,0.707,0.58,1.115,0.79
		c0.519,0.268,0.939,0.643,1.301,1.097c0.387,0.484,0.896,0.827,1.425,1.126c0.93,0.526,0.979,1.216,0.17,1.928
		c-0.742,0.654-1.438,1.357-2.291,1.874C95.067,28.913,94.524,28.869,94.235,28.447 M96.773,36.202
		c-0.081,0.303-0.154,0.815-0.641,0.828c-0.339,0.009-0.416-0.464-0.479-0.785c-0.036-0.182,0.639-0.696,0.859-0.683
		C96.725,35.573,96.795,35.715,96.773,36.202 M95.876,34.764c-0.113,0.114-0.206,0.253-0.376,0.184
		c-0.188-0.075-0.271-0.233-0.31-0.445c-0.135-0.76-0.129-1.554-0.551-2.249c-0.164-0.271,0.053-0.512,0.231-0.626
		c1.159-0.738,2.065-1.759,3.058-2.683c0.162-0.152,0.306-0.465,0.527-0.373c0.265,0.108,0.084,0.442,0.124,0.621
		c-0.072,1.063-0.144,2.074-0.205,3.086c-0.012,0.184-0.047,0.371-0.199,0.456C97.261,33.247,96.6,34.04,95.876,34.764"/>
	<path fill="#FFFFFF" d="M84.475,33.818c-0.891,0.066-1.656-0.169-2.258-0.867c-0.101-0.119-0.242-0.195-0.176-0.376
		c0.063-0.169,0.214-0.206,0.372-0.214c0.571-0.028,1.146-0.106,1.699,0.123c0.328,0.136,0.678,0.09,1.02,0.112
		c0.423,0.028,0.716,0.272,0.733,0.645c0.022,0.45-0.354,0.579-0.759,0.577C84.895,33.817,84.685,33.818,84.475,33.818"/>
	<g enable-background="new    ">
		<path fill="#FFFFFF" d="M16.747,56.803c-0.481-0.857-1.068-1.666-2.243-1.666c-0.944,0-1.569,0.674-1.569,1.435
			c0,1.213,0.953,1.482,1.781,1.637c0.915,0.125,1.55,0.366,1.916,0.693c0.375,0.327,0.558,0.693,0.558,1.078
			c0,1.165-0.943,2.08-2.243,2.08c-0.481,0-1.088-0.184-1.82-0.549l-0.279,0.279h-0.086l-0.674-1.666h0.241
			c0.674,0.856,1.541,1.637,2.619,1.637c0.963,0,1.752-0.712,1.752-1.56c0-0.443-0.308-1.213-1.983-1.464
			c-0.944-0.153-1.569-0.424-1.868-0.809c-0.27-0.347-0.404-0.741-0.404-1.194c0-1.116,0.982-1.896,2.061-1.896
			c0.433,0,0.953,0.164,1.569,0.491l0.27-0.222h0.087l0.568,1.695H16.747z"/>
	</g>
	<g enable-background="new    ">
		<path fill="#FFFFFF" d="M20.1,58.372c0-0.241-0.26-0.279-0.751-0.279v-0.299c0.298,0,0.712-0.145,1.242-0.414v0.626
			c0.481-0.434,0.934-0.636,1.608-0.636c0.973,0,1.858,0.79,1.858,2.051c0,1.733-1.319,2.147-2.061,2.147
			c-0.568,0-0.963-0.202-1.406-0.597v1.435c0,0.202,0.173,0.298,0.318,0.298h0.404v0.299h-1.906v-0.299h0.327
			c0.202,0,0.366-0.096,0.366-0.298V58.372z M20.591,60.471c0.202,0.539,0.905,0.799,1.406,0.799c0.366,0,0.684-0.115,0.953-0.347
			c0.414-0.347,0.626-0.847,0.626-1.502c0-0.856-0.52-1.752-1.521-1.752c-0.587,0-1.319,0.375-1.464,0.847V60.471z"/>
	</g>
	<g enable-background="new    ">
		<path fill="#FFFFFF" d="M27.853,58.323c0-0.202-0.144-0.26-0.77-0.26v-0.299c0.356,0,0.78-0.125,1.261-0.355v0.943
			c0.173-0.241,0.712-0.943,1.521-0.943c0.328,0,0.742,0.067,0.742,0.549c0,0.183-0.135,0.288-0.328,0.288
			c-0.164,0-0.289-0.067-0.385-0.192c-0.097-0.125-0.222-0.173-0.395-0.173c-0.433,0-0.847,0.395-1.155,1.088v2.301
			c0,0.309,0.077,0.395,0.356,0.395h0.356v0.299h-1.955v-0.299c0.559,0,0.751,0,0.751-0.395V58.323z"/>
		<path fill="#FFFFFF" d="M33.901,58.333c0-0.26-0.405-0.26-0.742-0.25v-0.299c0.356,0,0.761-0.125,1.223-0.375v3.909
			c0,0.27,0.221,0.346,0.404,0.346h0.578v0.299H32.9v-0.299h0.578c0.212,0,0.424-0.096,0.424-0.346V58.333z M34.604,55.281
			c0,0.25-0.221,0.442-0.453,0.442c-0.279,0-0.414-0.222-0.414-0.442c0-0.251,0.154-0.424,0.414-0.424
			C34.402,54.857,34.604,55.03,34.604,55.281z"/>
		<path fill="#FFFFFF" d="M38.485,58.381c0-0.278-0.366-0.27-0.731-0.26v-0.298c0.347,0,0.76-0.145,1.223-0.414v0.799l0.308-0.317
			c0.356-0.328,0.809-0.481,1.367-0.481c0.982,0,1.232,0.693,1.232,1.3v2.59c0,0.25,0.173,0.365,0.356,0.365h0.385v0.299h-1.955
			v-0.299h0.347c0.212,0,0.375-0.135,0.375-0.365v-2.59c0-0.491-0.27-1.002-0.963-1.002c-0.539,0-1.261,0.414-1.454,1.05v2.57
			c0,0.251,0.135,0.337,0.298,0.337h0.375v0.299h-1.868v-0.299h0.289c0.231,0,0.414-0.028,0.414-0.337V58.381z"/>
	</g>
	<g enable-background="new    ">
		<path fill="#FFFFFF" d="M46.929,61.039c1.194,0.23,1.974,0.452,1.974,0.953c0,0.347-0.375,1.021-2.311,1.021
			c-1.098,0-2.167-0.135-2.167-0.8c0-0.173,0.087-0.337,0.241-0.51c0.145-0.164,0.462-0.317,0.963-0.501
			c-0.645-0.183-0.712-0.27-0.712-0.52c0-0.395,0.472-0.578,0.703-0.664l-0.25-0.145c-0.366-0.299-0.549-0.636-0.549-1.03
			c0-1.04,0.982-1.464,1.781-1.464c0.481,0,0.876,0.135,1.184,0.385c0.202-0.221,0.616-0.481,1.001-0.481
			c0.327,0,0.347,0.222,0.347,0.261c0,0.192-0.106,0.279-0.299,0.279c-0.058,0-0.347-0.116-0.414-0.116h-0.048
			c-0.096,0-0.231,0.077-0.414,0.222c0.212,0.241,0.327,0.539,0.327,0.896c0,0.799-0.703,1.377-1.733,1.377
			c-0.404,0-1.155,0-1.155,0.317c0,0.058,0.019,0.097,0.058,0.125c0.067,0.049,0.404,0.135,1.011,0.279v0.01L46.929,61.039z
			 M46.13,61.327c-0.52,0.164-1.213,0.396-1.213,0.886c0,0.481,1.348,0.491,1.675,0.491c1.367,0,1.82-0.395,1.82-0.606
			c0-0.279-0.645-0.424-1.483-0.587L46.13,61.327z M45.312,58.844c0,0.731,0.703,1.059,1.242,1.059c0.693,0,1.242-0.414,1.242-1.078
			c0-0.828-0.655-1.146-1.194-1.146C45.822,57.679,45.312,58.16,45.312,58.844z"/>
	</g>
	<g enable-background="new    ">
		<path fill="#FFFFFF" d="M67.591,61.943h-0.279l-2.638-6.527v5.758c0,0.298,0.125,0.49,0.443,0.49h0.443v0.299h-2.108v-0.299h0.453
			c0.317,0,0.462-0.163,0.462-0.49v-5.479c0-0.328-0.135-0.463-0.443-0.463h-0.472v-0.298h1.656l2.465,6.162l2.494-6.162h1.627
			v0.298h-0.462c-0.366,0-0.424,0.116-0.462,0.299v5.623c0,0.212,0,0.51,0.385,0.51h0.539v0.299h-2.349v-0.299h0.52
			c0.241,0,0.414-0.163,0.414-0.51v-5.863L67.591,61.943z"/>
	</g>
	<g enable-background="new    ">
		<path fill="#FFFFFF" d="M76.14,62.165c-1.608,0-2.186-1.367-2.186-2.397c0-1.849,1.319-2.503,2.186-2.503
			c1.098,0,2.128,0.818,2.128,2.503C78.268,60.837,77.662,62.165,76.14,62.165z M77.286,58.103c-0.299-0.347-0.684-0.53-1.146-0.53
			c-0.472,0-0.867,0.184-1.194,0.539c-0.308,0.347-0.453,0.905-0.453,1.656c0,0.703,0.26,2.09,1.646,2.09
			c1.261,0,1.579-1.281,1.579-2.09C77.719,59.007,77.575,58.448,77.286,58.103z"/>
	</g>
	<g enable-background="new    ">
		<path fill="#FFFFFF" d="M84.134,61.347c0,0.241,0.231,0.317,0.424,0.317h0.433v0.299h-1.348v-0.741
			c-0.501,0.529-0.982,0.809-1.569,0.809c-0.645,0-1.146-0.375-1.146-1.29v-2.388c0-0.087-0.029-0.154-0.086-0.192
			c-0.058-0.049-0.27-0.067-0.655-0.067v-0.299c0.347,0,0.761-0.135,1.232-0.385v3.022c0,0.463,0.058,1.242,0.818,1.242
			c0.337,0,0.712-0.183,1.136-0.549l0.27-0.308v-2.465c0-0.135-0.067-0.212-0.193-0.241l-0.549-0.019v-0.299
			c0.347,0,0.761-0.135,1.232-0.385V61.347z"/>
	</g>
	<g enable-background="new    ">
		<path fill="#FFFFFF" d="M88.343,58.381c0-0.278-0.366-0.27-0.731-0.26v-0.298c0.346,0,0.76-0.145,1.223-0.414v0.799l0.308-0.317
			c0.356-0.328,0.809-0.481,1.367-0.481c0.982,0,1.232,0.693,1.232,1.3v2.59c0,0.25,0.173,0.365,0.356,0.365h0.385v0.299h-1.955
			v-0.299h0.347c0.212,0,0.375-0.135,0.375-0.365v-2.59c0-0.491-0.27-1.002-0.963-1.002c-0.539,0-1.261,0.414-1.454,1.05v2.57
			c0,0.251,0.135,0.337,0.298,0.337h0.375v0.299H87.64v-0.299h0.289c0.231,0,0.414-0.028,0.414-0.337V58.381z"/>
	</g>
	<g enable-background="new    ">
		<path fill="#FFFFFF" d="M96.365,60.778c0,0.578,0.048,0.954,0.587,0.954c0.25,0,0.578-0.212,0.963-0.646l0.212,0.202
			c-0.472,0.501-0.732,0.741-1.31,0.741c-0.78,0-0.944-0.664-0.944-1.252v-2.975h-0.876v-0.299c0.896,0,1.098-0.597,1.098-2.041
			h0.27v2.041h1.338v0.299h-1.338V60.778z"/>
	</g>
	<g enable-background="new    ">
		<path fill="#FFFFFF" d="M103.709,61.655c-0.423,0.327-0.924,0.5-1.512,0.5c-0.433,0-1.184-0.221-1.184-1.155
			c0-0.385,0.154-0.703,0.491-0.963c0.443-0.337,1.261-0.577,2.474-0.741V58.66c0-0.645-0.606-1.059-1.165-1.059
			c-0.693,0-1.021,0.442-1.021,0.645v0.116c0.02,0.105,0.058,0.385-0.279,0.385c-0.241,0-0.298-0.183-0.298-0.299
			c0-0.597,0.665-1.146,1.598-1.146c1.021,0,1.656,0.693,1.656,1.357v2.234c0,0.356,0,0.963,0.202,0.963
			c0.086,0,0.202-0.184,0.327-0.53l0.27,0.145c-0.193,0.616-0.453,0.684-0.703,0.684c-0.51,0-0.549-0.472-0.578-0.799
			L103.709,61.655z M103.978,59.604c-0.963,0.163-1.646,0.385-2.051,0.664c-0.289,0.183-0.423,0.434-0.423,0.731
			c0,0.521,0.462,0.857,0.886,0.857c0.606,0,1.492-0.434,1.588-1.137V59.604z"/>
	</g>
	<g enable-background="new    ">
		<path fill="#FFFFFF" d="M109.281,58.333c0-0.26-0.405-0.26-0.742-0.25v-0.299c0.356,0,0.761-0.125,1.223-0.375v3.909
			c0,0.27,0.221,0.346,0.404,0.346h0.578v0.299h-2.465v-0.299h0.578c0.212,0,0.424-0.096,0.424-0.346V58.333z M109.984,55.281
			c0,0.25-0.221,0.442-0.453,0.442c-0.279,0-0.414-0.222-0.414-0.442c0-0.251,0.154-0.424,0.414-0.424
			C109.781,54.857,109.984,55.03,109.984,55.281z"/>
	</g>
	<g enable-background="new    ">
		<path fill="#FFFFFF" d="M114.228,58.381c0-0.278-0.366-0.27-0.731-0.26v-0.298c0.346,0,0.76-0.145,1.223-0.414v0.799l0.308-0.317
			c0.356-0.328,0.809-0.481,1.367-0.481c0.982,0,1.232,0.693,1.232,1.3v2.59c0,0.25,0.173,0.365,0.356,0.365h0.385v0.299h-1.955
			v-0.299h0.347c0.212,0,0.375-0.135,0.375-0.365v-2.59c0-0.491-0.27-1.002-0.963-1.002c-0.539,0-1.261,0.414-1.454,1.05v2.57
			c0,0.251,0.135,0.337,0.298,0.337h0.375v0.299h-1.868v-0.299h0.289c0.231,0,0.414-0.028,0.414-0.337V58.381z"/>
	</g>
</g>
</svg>
